<?xml version="1.0" encoding="utf-8"?>
<!-- Generator: Adobe Illustrator 25.2.1, SVG Export Plug-In . SVG Version: 6.00 Build 0)  -->
<svg version="1.1" id="Layer_1" xmlns="http://www.w3.org/2000/svg" xmlns:xlink="http://www.w3.org/1999/xlink" x="0px" y="0px"
	 viewBox="0 0 250 300" style="enable-background:new 0 0 250 300;" xml:space="preserve">
<style type="text/css">
	.st0{fill:#4F4F4F;}
	.st1{fill:#00FF8A;}
	.st2{fill:#00FF8A;stroke:#1D1D1B;stroke-width:14;stroke-miterlimit:10;}
	.st3{opacity:0.1;fill:#00FF8A;enable-background:new    ;}
</style>
<rect class="st0" width="250" height="300"/>
<g>
	<path class="st1" d="M95.1,132v18.4c0,6.6-5.3,12.1-12.4,13.6c-1.2,0.3-2.6,0.4-3.9,0.4c-9,0-16.3-6.3-16.3-14v-10.6
		c0-2.2,0.9-4.1,2.3-5.5c1.4-1.4,3.4-2.3,5.5-2.3h0.4v18.4c0,3.1,3.7,5.8,8.1,5.8c1.4,0,2.8-0.3,3.9-0.8c2.5-1,4.2-2.9,4.2-5v-12.7
		c0-3.1,2.5-5.7,5.7-5.7H95.1z"/>
	<path class="st1" d="M176.6,143.4v-28.1l0,0c-4.3,0-7.8,3.6-7.8,8.2v19.9c0,11.7,7.3,21.3,16.3,21.3c1.3,0,2.7-0.2,3.9-0.6
		C181.9,161.7,176.6,153.4,176.6,143.4z"/>
	<path class="st2" d="M226.6,106.4"/>
	<path class="st1" d="M218.5,148.6c0-1.2-0.1-2.3-0.4-3.4l0,0c-1.4-6.6-7.1-11.7-14-12.3c-0.3-0.1-0.5-0.1-0.8-0.1
		c-0.2,0-0.4,0-0.7,0c-0.2,0-0.5,0-0.7,0c-8.4,0.4-15.1,7.3-15.1,15.8c0,8.7,7.1,15.8,15.8,15.8c8,0,14.3-2.7,15.4-10.4h-7.1
		c-1,3.7-4.3,3.2-8.3,3.2s-7.3-2.7-8.3-6.4h23.9C218.4,150.1,218.5,149.3,218.5,148.6z M199.3,145.2c-1.5,0-2.9,0.6-4,1.6
		c-0.5,0.5-1,1.2-1.2,1.8c0-0.1,0-0.1,0-0.1c0-1.2,0.3-2.4,0.7-3.4c0.4-0.9,0.9-1.6,1.5-2.4c1.6-1.7,3.9-2.8,6.4-2.8
		c2.5,0,4.8,1.1,6.4,2.8c0.6,0.7,1.1,1.5,1.5,2.4C210.6,145.2,199.3,145.2,199.3,145.2z"/>
	<path class="st1" d="M218.5,148.6c0,0.7-0.1,1.5-0.2,2.2l0,0C218.4,150.1,218.5,149.3,218.5,148.6c0-1.2-0.2-2.3-0.4-3.4l0,0
		C218.4,146.3,218.5,147.4,218.5,148.6z"/>
	<g>
		<path class="st1" d="M42.3,164.6c-0.2,0-0.4,0-0.7-0.1l0,0c-5.7-0.2-10.6-3.4-13.2-8.1c-1.3-2.3-2-4.9-2-7.8v-33.3
			c4.4,0,8,3.2,8,6.6v26.2c0,4.2,3.2,8.1,7.4,8.4c4.5,0.3,8.2-3.1,8.5-7.4v-0.5c0-4.3-3.3-7.7-7.5-8h-0.1c-0.1,0-0.3,0-0.4,0h-0.1
			c-4.3,0.1-7.9,3.8-7.9,8.2v-14c2.7-1.5,5.9-2.4,9.3-2.1c7.7,0.6,14,6.9,14.5,14.7c0.7,9.1-6.5,16.7-15.3,17.1H42.3z"/>
		<path class="st1" d="M53.9,155.5c-0.1,0.3-0.1,0.5-0.2,0.8c0,0.1-0.1,0.1-0.1,0.2c0,0.1-0.1,0.2-0.1,0.3c-0.1,0.1-0.2,0.3-0.2,0.4
			c0,0,0,0,0,0.1v0.1c0,0.1-0.1,0.1-0.1,0.1l0,0v0.1c-0.1,0.2-0.2,0.4-0.3,0.5"/>
		<path class="st1" d="M53.4,157.1L53.4,157.1c0,0.1-0.1,0.1-0.1,0.1S53.4,157.2,53.4,157.1z"/>
		<path class="st3" d="M53.7,156.4c-0.1,0.2-0.1,0.3-0.2,0.4c-0.1,0.1-0.1,0.2-0.1,0.3c0.1-0.1,0.1-0.3,0.2-0.4
			C53.6,156.5,53.6,156.5,53.7,156.4z"/>
	</g>
	<g>
		<path class="st1" d="M114,164.4c-0.2,0-0.4,0-0.7-0.1l0,0c-5.7-0.2-10.6-3.4-13.2-8.1c-1.3-2.3-2-4.9-2-7.8v-33.3
			c4.4,0,8,3.2,8,6.6v26.2c0,4.2,3.2,8.1,7.4,8.4c4.5,0.3,8.2-3.1,8.5-7.4v-0.5c0-4.3-3.3-7.7-7.5-8h-0.1c-0.1,0-0.3,0-0.4,0H114
			c-4.3,0.1-7.9,3.8-7.9,8.2v-14c2.7-1.5,5.9-2.4,9.3-2.1c7.7,0.6,14,6.9,14.5,14.7c0.7,9.1-6.5,16.7-15.3,17.1H114z"/>
		<path class="st1" d="M125.6,155.4c-0.1,0.3-0.1,0.5-0.2,0.8c0,0.1-0.1,0.1-0.1,0.2c0,0.1-0.1,0.2-0.1,0.3
			c-0.1,0.1-0.2,0.3-0.2,0.4c0,0,0,0,0,0.1v0.1c0,0.1-0.1,0.1-0.1,0.1l0,0v0.1c-0.1,0.2-0.2,0.4-0.3,0.5"/>
		<path class="st1" d="M125.1,157L125.1,157c0,0.1-0.1,0.1-0.1,0.1S125.1,157.1,125.1,157z"/>
		<path class="st3" d="M125.4,156.3c-0.1,0.2-0.1,0.3-0.2,0.4c-0.1,0.1-0.1,0.2-0.1,0.3c0.1-0.1,0.1-0.3,0.2-0.4
			C125.3,156.4,125.3,156.4,125.4,156.3z"/>
	</g>
	<g>
		<path class="st1" d="M149,164.5c-0.2,0-0.4,0-0.7-0.1l0,0c-5.7-0.2-10.6-3.4-13.2-8.1c-1.3-2.3-2-4.9-2-7.8v-33.3
			c4.4,0,8,3.2,8,6.6v26.2c0,4.2,3.2,8.1,7.4,8.4c4.5,0.3,8.2-3.1,8.5-7.4v-0.5c0-4.3-3.3-7.7-7.5-8h-0.1c-0.1,0-0.3,0-0.4,0H149
			c-4.3,0.1-7.9,3.8-7.9,8.2v-14c2.7-1.5,5.9-2.4,9.3-2.1c7.7,0.6,14,6.9,14.5,14.7c0.7,9.1-6.5,16.7-15.3,17.1H149z"/>
		<path class="st1" d="M160.6,155.4c-0.1,0.3-0.1,0.5-0.2,0.8c0,0.1-0.1,0.1-0.1,0.2c0,0.1-0.1,0.2-0.1,0.3
			c-0.1,0.1-0.2,0.3-0.2,0.4c0,0,0,0,0,0.1v0.1c0,0.1-0.1,0.1-0.1,0.1l0,0v0.1c-0.1,0.2-0.2,0.4-0.3,0.5"/>
		<path class="st1" d="M160,157.1L160,157.1c0,0.1-0.1,0.1-0.1,0.1S160,157.1,160,157.1z"/>
		<path class="st3" d="M160.3,156.3c-0.1,0.2-0.1,0.3-0.2,0.4c-0.1,0.1-0.1,0.2-0.1,0.3c0.1-0.1,0.1-0.3,0.2-0.4
			C160.3,156.5,160.3,156.4,160.3,156.3z"/>
	</g>
</g>
</svg>
