<?xml version="1.0" encoding="utf-8"?>
<!-- Generator: Adobe Illustrator 25.2.1, SVG Export Plug-In . SVG Version: 6.00 Build 0)  -->
<svg version="1.1" id="Layer_1" xmlns="http://www.w3.org/2000/svg" xmlns:xlink="http://www.w3.org/1999/xlink" x="0px" y="0px"
	 viewBox="0 0 250 300" style="enable-background:new 0 0 250 300;" xml:space="preserve">
<style type="text/css">
	.st0{fill:#171717;}
	.st1{fill:#B1B1B1;}
	.st2{fill:#F2C739;}
</style>
<polygon class="st0" points="0,220.3 250,133.8 250,99.5 0,186 "/>
<polygon class="st0" points="0,246.9 0,300 250,300 250,160.4 "/>
<polygon class="st0" points="250,72.9 250,0 0,0 0,159.3 "/>
<rect class="st0" width="250" height="300"/>
<g>
	<g>
		<g>
			<g>
				<path class="st1" d="M27.4,153.7c-0.8-0.4-1.4-0.9-1.8-1.7l2.5-1.9c0.3,0.3,0.6,0.6,1,0.8c0.4,0.2,0.8,0.3,1.2,0.3
					c0.6,0,1.1-0.2,1.4-0.6c0.3-0.4,0.5-1,0.5-1.8v-11.4h3.3v11.4c0,1.1-0.2,2.1-0.6,3c-0.4,0.8-1,1.5-1.8,1.9
					c-0.8,0.4-1.7,0.7-2.9,0.7C29.2,154.3,28.2,154.1,27.4,153.7z"/>
				<path class="st1" d="M39.2,137.5h3.1v16.7h-3.1V137.5z M40.7,151.1h4c1,0,1.8-0.2,2.4-0.8c0.6-0.5,0.8-1.2,0.8-2.1v-4.9
					c0-0.9-0.3-1.6-0.8-2.1c-0.6-0.5-1.4-0.8-2.4-0.8h-4v-3h3.9c1.4,0,2.6,0.2,3.5,0.7c1,0.5,1.7,1.1,2.2,2c0.5,0.9,0.8,2,0.8,3.2
					v4.7c0,1.2-0.2,2.3-0.8,3.1c-0.5,0.9-1.2,1.6-2.2,2.1c-1,0.5-2.2,0.8-3.6,0.8h-3.9L40.7,151.1L40.7,151.1z"/>
				<path class="st1" d="M82.8,154.1h-3.3v-16.7h3.3V154.1z"/>
				<path class="st1" d="M86.2,137.5h3.8l6.2,12.7l-0.3,0.3v-13.1h3v16.7h-3.9l-6.2-12.6l0.3-0.3v12.9h-3L86.2,137.5L86.2,137.5z"/>
				<path class="st1" d="M100.9,137.5h3.2l3.5,11.1l3.5-11.1h3.2l-5.5,16.7h-2.5L100.9,137.5z"/>
				<path class="st1" d="M116.4,137.5h3.2v16.7h-3.2V137.5z M117.5,137.5h10v3h-10V137.5z M117.5,144.3h8.8v3h-8.8L117.5,144.3
					L117.5,144.3z M117.5,151.1h10v3h-10V151.1z"/>
				<path class="st1" d="M133.4,154.1c-0.8-0.1-1.5-0.4-2.1-0.7c-0.7-0.3-1.3-0.7-1.8-1.1l1.5-2.6c0.7,0.5,1.4,0.9,2.2,1.2
					c0.8,0.3,1.7,0.4,2.6,0.4c1,0,1.8-0.2,2.4-0.5c0.6-0.3,0.8-0.8,0.8-1.5l0,0c0-0.4-0.1-0.8-0.4-1c-0.2-0.2-0.6-0.5-1-0.6
					c-0.4-0.1-0.9-0.2-1.6-0.3h0h0l-0.2,0c-1.1-0.2-2-0.4-2.8-0.7c-0.8-0.3-1.4-0.7-1.9-1.4c-0.5-0.7-0.8-1.6-0.8-2.8l0,0
					c0-1.1,0.2-2,0.7-2.7c0.5-0.8,1.2-1.4,2.1-1.7c0.9-0.4,2-0.6,3.3-0.6c0.6,0,1.2,0,1.8,0.2c0.6,0.1,1.2,0.3,1.8,0.6
					c0.6,0.3,1.2,0.6,1.7,0.9l-1.3,2.6c-0.7-0.4-1.3-0.8-2-1c-0.7-0.2-1.4-0.4-2-0.4c-0.9,0-1.7,0.1-2.2,0.5
					c-0.5,0.3-0.8,0.8-0.8,1.3l0,0c0,0.5,0.1,0.8,0.4,1.1c0.3,0.3,0.6,0.5,1,0.6s1,0.3,1.7,0.4c0,0,0,0,0.1,0c0,0,0,0,0.1,0
					c0,0,0.1,0,0.1,0s0.1,0,0.1,0c1,0.2,1.9,0.5,2.6,0.8s1.3,0.8,1.7,1.4c0.5,0.7,0.7,1.6,0.7,2.7l0,0c0,1-0.2,2-0.8,2.7
					c-0.5,0.8-1.2,1.3-2.2,1.7c-0.9,0.4-2.1,0.6-3.4,0.6C134.9,154.3,134.1,154.2,133.4,154.1z"/>
				<path class="st1" d="M142.6,137.5h12.2v3h-12.2V137.5z M147.1,138.9h3.2v15.3h-3.2V138.9z"/>
				<path class="st1" d="M166.7,137.5h4.2v16.7H168v-12.9l0.1,0.8l-3.2,10.3h-2.8l-3.2-10.1l0.1-0.9v12.9h-2.8v-16.7h4.2l3.2,11.2
					L166.7,137.5z"/>
				<path class="st1" d="M174.5,137.5h3.2v16.7h-3.2V137.5z M175.6,137.5h10v3h-10V137.5z M175.6,144.3h8.8v3h-8.8V144.3z
					 M175.6,151.1h10v3h-10V151.1z"/>
				<path class="st1" d="M188.5,137.5h3.8l6.2,12.7l-0.3,0.3v-13.1h3v16.7h-3.9l-6.2-12.6l0.3-0.3v12.9h-3L188.5,137.5L188.5,137.5z
					"/>
				<path class="st1" d="M202.6,137.5h12.2v3h-12.2V137.5z M207.2,138.9h3.2v15.3h-3.2V138.9z"/>
				<path class="st1" d="M219.1,154.1c-0.8-0.1-1.5-0.4-2.1-0.7c-0.7-0.3-1.3-0.7-1.8-1.1l1.5-2.6c0.7,0.5,1.4,0.9,2.2,1.2
					c0.8,0.3,1.7,0.4,2.6,0.4c1,0,1.8-0.2,2.4-0.5c0.6-0.3,0.8-0.8,0.8-1.5l0,0c0-0.4-0.1-0.8-0.4-1c-0.2-0.2-0.6-0.5-1-0.6
					c-0.4-0.1-0.9-0.2-1.6-0.3h0h0l-0.2,0c-1.1-0.2-2-0.4-2.8-0.7c-0.8-0.3-1.4-0.7-1.9-1.4s-0.8-1.6-0.8-2.8l0,0
					c0-1.1,0.2-2,0.7-2.7c0.5-0.8,1.2-1.4,2.1-1.7c0.9-0.4,2-0.6,3.3-0.6c0.6,0,1.2,0,1.8,0.2c0.6,0.1,1.2,0.3,1.8,0.6
					c0.6,0.3,1.2,0.6,1.7,0.9l-1.3,2.6c-0.7-0.4-1.3-0.8-2-1s-1.4-0.4-2-0.4c-0.9,0-1.7,0.1-2.2,0.5c-0.5,0.3-0.8,0.8-0.8,1.3l0,0
					c0,0.5,0.1,0.8,0.4,1.1c0.3,0.3,0.6,0.5,1,0.6c0.4,0.1,1,0.3,1.7,0.4c0,0,0,0,0.1,0c0,0,0,0,0.1,0c0,0,0.1,0,0.1,0
					c0,0,0.1,0,0.1,0c1,0.2,1.9,0.5,2.6,0.8c0.7,0.3,1.3,0.8,1.7,1.4c0.5,0.7,0.7,1.6,0.7,2.7l0,0c0,1-0.2,2-0.8,2.7
					c-0.5,0.8-1.2,1.3-2.2,1.7c-0.9,0.4-2.1,0.6-3.4,0.6C220.7,154.3,219.9,154.2,219.1,154.1z"/>
			</g>
		</g>
		<g>
			<rect x="58.6" y="128.4" class="st2" width="3" height="26"/>
			<rect x="68.9" y="128.4" class="st2" width="3" height="26"/>
			<rect x="64.2" y="121.5" class="st2" width="2.5" height="32.9"/>
		</g>
	</g>
</g>
</svg>
